<svg xmlns="http://www.w3.org/2000/svg" viewBox="0 0 512 512">
  <defs>
    <linearGradient id="bg" x1="0%" y1="0%" x2="100%" y2="100%">
      <stop offset="0%" style="stop-color:#059669"/>
      <stop offset="100%" style="stop-color:#047857"/>
    </linearGradient>
  </defs>
  <rect width="512" height="512" rx="64" fill="url(#bg)"/>
  <!-- Shopping bag -->
  <path d="M160 200 L160 380 C160 394 171 406 186 406 L326 406 C341 406 352 394 352 380 L352 200 Z" fill="white" opacity="0.95"/>
  <!-- Bag handle -->
  <path d="M210 200 L210 170 C210 140 230 116 256 116 C282 116 302 140 302 170 L302 200" fill="none" stroke="white" stroke-width="16" stroke-linecap="round"/>
  <!-- Star/arabic pattern -->
  <circle cx="256" cy="300" r="35" fill="#059669"/>
  <path d="M256 270 L263 290 L285 290 L268 302 L274 322 L256 312 L238 322 L244 302 L227 290 L249 290 Z" fill="white"/>
</svg>
